<svg xmlns="http://www.w3.org/2000/svg" width="671" height="88" fill="none">
    <path fill="#18181B" d="M85.058.966h17.553L85.379 86.67H67.833L51.357 30.82 34.88 86.671H17.328L0 .966h17.546l10.162 50.287L42.475.966v-.11h17.654l14.876 50.397L85.058.966ZM166.056 16.91h-33.599v18.833h20.011v15.939h-20.011v19.044h33.599V86.67H116.41V.965h49.646V16.91ZM282.037 1.074v85.597h-15.945V39.163L255.181 65.16h-17.546l-10.809-25.78v47.29h-16.048V1.074h17.655l17.975 43.122 18.083-43.122h17.546ZM346.337 86.671l-6.314-21.292h-21.074l-6.314 21.292h-16.797l25.25-85.596h16.796v.211l25.147 85.385h-16.694Zm-22.682-37.237h11.661l-5.776-19.902-5.885 19.902ZM412.354 87.74c-1.713 0-4.137-.179-7.275-.538-3.138-.355-6.509-1.154-10.111-2.4-3.604-1.251-7.047-3.196-10.329-5.835-3.066-2.569-5.667-5.423-7.806-8.561l13.05-8.882a36.781 36.781 0 0 0 2.19 2.786c.751.855 1.59 1.637 2.517 2.35a17.741 17.741 0 0 0 5.936 3.317c2.177.714 4.246 1.213 6.205 1.498 1.963.287 3.588.43 4.873.43h2.459c4.422 0 7.846-.963 10.272-2.889 2.428-1.924 3.714-4.03 3.855-6.314.14-2.497-1.163-4.991-3.907-7.485-2.745-2.498-7.258-4.175-13.537-5.034-9.413-.998-16.904-4.066-22.47-9.202-2.779-2.564-4.865-5.47-6.256-8.715-1.393-3.248-1.945-6.584-1.659-10.008.359-3.923 1.821-7.65 4.387-11.181 2.569-3.53 6.368-6.348 11.398-8.453C401.175.521 407.469-.318 415.03.108c3.423 0 6.828.429 10.214 1.287 3.389.855 6.546 1.96 9.471 3.317 2.923 1.354 5.385 2.779 7.383 4.277l-9.202 12.84c-1.285-1-2.944-1.942-4.975-2.83a44.627 44.627 0 0 0-6.474-2.249c-2.28-.605-4.492-.909-6.634-.909h-.321c-5.849-.285-10.341.39-13.479 2.03-3.138 1.64-4.78 3.532-4.924 5.674-.141 1.997.59 3.763 2.196 5.295 1.604 1.534 3.69 2.783 6.256 3.746 2.57.96 5.21 1.62 7.921 1.98h.212c7.559.926 13.694 2.924 18.404 5.993 4.708 3.066 8.095 6.666 10.162 10.803 2.07 4.136 2.962 8.273 2.677 12.41-.215 3.924-1.516 7.723-3.906 11.398-2.387 3.673-5.738 6.666-10.054 8.984-4.316 2.318-9.541 3.513-15.676 3.586h-1.927ZM508.539 1.715h15.945V87.42h-15.945V56.71h-34.771V87.42h-16.047V1.715h16.047V40.77h34.771V1.715ZM588.786 86.67l-6.314-21.291h-21.074l-6.314 21.292h-16.797l25.249-85.597h16.797v.212L605.48 86.67h-16.694Zm-22.682-37.236h11.661l-5.776-19.902-5.885 19.902ZM627.837 68.267V1.074H611.79v67.193h16.047Zm0 18.404V70.835H611.79V86.67h16.047ZM654.207 70.822c1.954 0 3.235-1.063 3.235-3.02 0-1.954-1.281-2.897-3.285-2.897h-3.114v5.917h3.164Zm-5.941-8.451h6.061c3.621 0 5.939 1.93 5.939 5.383 0 2.608-1.449 4.25-3.501 4.974l3.96 6.545h-3.235l-3.573-5.965c-.024-.024-.894 0-.918 0h-1.956v5.965h-2.777V62.37Z"/>
    <mask id="a" width="36" height="35" x="636" y="53" maskUnits="userSpaceOnUse" style="mask-type:luminance">
        <path fill="#fff" d="M636.896 53.754H671v34.104h-34.104V53.754Z"/>
    </mask>
    <g mask="url(#a)"><path fill="#18181B" d="M653.953 56.681a14.083 14.083 0 0 0-9.992 4.14 14.054 14.054 0 0 0-4.138 9.991c0 1.908.373 3.757 1.109 5.5a14.113 14.113 0 0 0 3.029 4.491 14.071 14.071 0 0 0 9.992 4.138 14.066 14.066 0 0 0 9.991-4.138 14.08 14.08 0 0 0 4.138-9.991 14.054 14.054 0 0 0-4.138-9.991 14.083 14.083 0 0 0-9.991-4.14Zm0 31.189c-2.303 0-4.536-.452-6.641-1.342a16.977 16.977 0 0 1-5.421-3.655 16.99 16.99 0 0 1-3.654-5.422 16.926 16.926 0 0 1-1.342-6.639c0-2.302.451-4.537 1.342-6.64a16.991 16.991 0 0 1 3.654-5.423 17.003 17.003 0 0 1 12.062-4.996 16.996 16.996 0 0 1 12.062 4.996 17.01 17.01 0 0 1 4.997 12.063 17.01 17.01 0 0 1-4.997 12.061 16.97 16.97 0 0 1-5.422 3.655 16.95 16.95 0 0 1-6.64 1.341Z"/>
    </g>
</svg>